<svg xmlns="http://www.w3.org/2000/svg" width="2em" viewBox="0 0 65.4 65.4"><style>.st1{fill:#fff}</style><circle id="XMLID_8_" cx="32.7" cy="32.7" r="32.7" fill="#00db80"/><path id="XMLID_7_" class="st1" d="M32.7 7.7c1 0 1.7.8 1.7 1.7V56a1.7 1.7 0 1 1-3.4 0V9.4c0-1 .8-1.7 1.7-1.7z"/><path id="XMLID_6_" class="st1" d="M33.6 8.2c.7.7.7 1.8 0 2.4L23.5 21.3c-.7.7-1.8.7-2.4 0-.7-.6-.7-1.7 0-2.3L31.2 8.3c.6-.7 1.7-.7 2.3 0z"/><path id="XMLID_5_" class="st1" d="M33.6 19c.7.7.7 1.8 0 2.4L23.5 32.1c-.7.7-1.8.7-2.4 0-.7-.6-.7-1.6 0-2.3L31.2 19c.6-.7 1.7-.7 2.3 0z"/><path id="XMLID_4_" class="st1" d="M33.6 30.5c.7.7.7 1.8 0 2.4L23.5 43.6c-.7.7-1.8.7-2.4 0-.7-.6-.7-1.7 0-2.3l10.3-10.7c.6-.7 1.7-.7 2.3 0z"/><path id="XMLID_3_" class="st1" d="M44.5 21.4c.6-.7.7-1.7 0-2.4L34.2 8.3c-.7-.7-1.7-.7-2.4 0-.7.6-.7 1.7 0 2.3L42 21.3c.6.7 1.7.7 2.4 0z"/><path id="XMLID_2_" class="st1" d="M44.5 32.2c.6-.7.7-1.7 0-2.4L34.2 19c-.7-.7-1.7-.7-2.4 0-.7.6-.7 1.7 0 2.4L42 32c.6.7 1.7.7 2.4 0z"/><path id="XMLID_1_" class="st1" d="M44.5 43.7c.6-.7.7-1.8 0-2.4L34.2 30.6c-.7-.7-1.7-.7-2.4 0-.7.6-.7 1.7 0 2.3L42 43.6c.6.7 1.7.7 2.4 0z"/></svg>