<?xml version="1.0" standalone="no"?>
<!DOCTYPE svg PUBLIC "-//W3C//DTD SVG 20010904//EN"
 "http://www.w3.org/TR/2001/REC-SVG-20010904/DTD/svg10.dtd">
<svg version="1.0" xmlns="http://www.w3.org/2000/svg"
 width="700.000000pt" height="700.000000pt" viewBox="0 0 700.000000 700.000000"
 preserveAspectRatio="xMidYMid meet">
<metadata>
Created by potrace 1.11, written by Peter Selinger 2001-2013
</metadata>
<g transform="translate(0.000000,700.000000) scale(0.100000,-0.100000)"
fill="#000000" stroke="none">
<path d="M3290 6994 c-19 -2 -87 -9 -150 -15 -647 -61 -1294 -326 -1825 -746
-141 -111 -437 -407 -548 -548 -413 -521 -662 -1120 -744 -1785 -24 -200 -24
-600 0 -800 82 -665 331 -1264 744 -1785 111 -141 407 -437 548 -548 521 -413
1120 -662 1785 -744 200 -24 600 -24 800 0 665 82 1264 331 1785 744 141 111
437 407 548 548 413 521 662 1120 744 1785 24 200 24 600 0 800 -82 665 -331
1264 -744 1785 -111 141 -407 437 -548 548 -518 410 -1123 663 -1775 742 -126
15 -542 28 -620 19z m332 -854 c41 -29 1121 -1147 1157 -1197 56 -77 32 -195
-49 -249 -48 -32 -127 -37 -176 -11 -17 9 -219 210 -449 447 -229 236 -419
430 -421 430 -2 0 -4 -141 -4 -313 l0 -314 545 -564 c300 -310 555 -582 566
-603 43 -80 9 -190 -72 -235 -41 -23 -108 -27 -157 -10 -19 7 -125 109 -293
282 -145 150 -336 347 -426 440 l-163 167 0 -352 0 -353 546 -565 c300 -311
554 -582 565 -602 78 -150 -88 -317 -239 -239 -22 11 -209 197 -452 450 l-415
430 -5 -1118 -5 -1117 -25 -37 c-35 -51 -86 -77 -151 -77 -64 0 -103 21 -145
76 l-29 37 -5 1117 -5 1116 -417 -432 c-243 -251 -432 -438 -452 -448 -148
-70 -307 86 -238 235 14 31 178 206 566 608 l546 563 0 353 0 353 -138 -142
c-76 -77 -266 -273 -423 -435 -168 -174 -297 -299 -316 -308 -42 -17 -117 -17
-151 1 -93 49 -128 156 -79 244 12 23 266 294 565 602 l542 560 0 315 c0 173
-2 315 -4 315 -1 0 -187 -190 -411 -422 -224 -233 -426 -434 -448 -447 -121
-74 -278 27 -265 170 3 30 14 62 29 83 47 65 1142 1187 1178 1207 54 29 176
23 223 -11z"/>
</g>
</svg>
