<svg aria-hidden="true" style="position: absolute; width: 0; height: 0; overflow: hidden;" version="1.1" xmlns="http://www.w3.org/2000/svg"><defs><symbol id="tree" viewBox="0 0 24.5 50"><path d="M12.3 0c.9 0 1.6.8 1.6 1.7v46.6c0 1-.7 1.7-1.6 1.7-1 0-1.7-.8-1.7-1.7V1.7c0-1 .7-1.7 1.7-1.7z"/><path d="M13.2.5c.7.7.7 1.8 0 2.4L3 13.6c-.6.7-1.7.7-2.4 0-.7-.6-.7-1.7 0-2.3L10.8.6c.6-.7 1.7-.7 2.4 0zM13.2 11.3c.7.7.7 1.8 0 2.4L3 24.4c-.6.7-1.7.7-2.4 0-.7-.6-.7-1.6 0-2.3l10.3-10.7c.6-.7 1.7-.7 2.4 0zM13.2 22.8c.7.7.7 1.7 0 2.4L3 36c-.6.7-1.7.7-2.4 0-.7-.6-.7-1.7 0-2.3l10.3-10.7c.6-.7 1.7-.7 2.4 0z"/><path d="M24 13.7c.7-.7.7-1.8 0-2.4L13.7.6c-.6-.7-1.7-.7-2.4 0-.6.6-.7 1.6 0 2.3l10.3 10.7c.7.7 1.7.7 2.4 0zM24 24.5c.7-.7.7-1.8 0-2.4L13.7 11.4c-.6-.7-1.7-.7-2.4 0-.6.6-.7 1.7 0 2.3l10.3 10.7c.7.7 1.7.7 2.4 0zM24 36c.7-.7.7-1.8 0-2.4L13.7 22.9c-.6-.7-1.7-.7-2.4 0-.6.6-.7 1.7 0 2.3L21.6 36c.7.7 1.7.7 2.4 0z"/></symbol><symbol id="link" viewBox="0 0 50 50"><path d="M46.5 3.5a11.8 11.8 0 0 0-16.7 0l-8.3 8.3a1.8 1.8 0 1 0 2.5 2.6L32.4 6a8.1 8.1 0 0 1 5.8-2.4 8.1 8.1 0 0 1 8.2 8.2c0 2.2-.9 4.3-2.4 5.8l-11 11a8.2 8.2 0 0 1-11.5 0 1.8 1.8 0 1 0-2.6 2.5 11.8 11.8 0 0 0 16.7 0l11-11a11.7 11.7 0 0 0 0-16.7z"/><path d="M24.7 36.9l-7.1 7a8.1 8.1 0 0 1-5.8 2.5 8.2 8.2 0 0 1-5.8-14l10.3-10.3a8.1 8.1 0 0 1 5.8-2.4c2.2 0 4.3.9 5.8 2.4a1.8 1.8 0 1 0 2.6-2.6 11.8 11.8 0 0 0-16.8 0L3.4 29.8a11.8 11.8 0 0 0 0 16.7 11.7 11.7 0 0 0 16.7 0l7.1-7a1.8 1.8 0 1 0-2.5-2.6z"/></symbol><symbol id="magnifier" viewBox="0 0 50 50"><path d="M32.9 5.6a19.1 19.1 0 0 0-27.3 0 19 19 0 0 0 0 27.2 19.1 19.1 0 0 0 27.3 0 19.1 19.1 0 0 0 0-27.2zM19.2 34.8a15.6 15.6 0 1 1 0-31.2 15.6 15.6 0 0 1 0 31.2z"/><path d="M49.5 47L32.8 30.1a1.8 1.8 0 1 0-2.6 2.6L47 49.5a1.8 1.8 0 0 0 2.6 0c.7-.7.7-1.9 0-2.6z"/></symbol><symbol id="arrow" viewBox="0 0 50 34.4"><path d="M49.3 15.6L34.4.6A2.3 2.3 0 1 0 31.1 4l11 10.9H2.3a2.3 2.3 0 0 0 0 4.6h39.8l-11 11a2.3 2.3 0 0 0 3.3 3.2l15-14.8c.8-1 .8-2.4 0-3.3z"/></symbol></defs></svg>